<svg xmlns="http://www.w3.org/2000/svg" xmlns:xlink="http://www.w3.org/1999/xlink" width="120" zoomAndPan="magnify" viewBox="0 0 375 374.999991" height="120" preserveAspectRatio="xMidYMid meet" version="1.0">
<path fill="#8D0039" d="M 313.128906 375 L 61.871094 375 C 27.707031 375 0 347.292969 0 313.128906 L 0 61.871094 C 0 27.707031 27.707031 0 61.871094 0 L 313.128906 0 C 347.292969 0 375 27.707031 375 61.871094 L 375 313.128906 C 375 347.292969 347.292969 375 313.128906 375 Z M 313.128906 375 " fill-opacity="1" fill-rule="nonzero"/>
<path fill="#F777DE" d="M 92.808594 78.28125 L 140.421875 78.28125 L 140.421875 296.988281 L 92.808594 296.988281 Z M 92.808594 78.28125 " fill-opacity="1" fill-rule="nonzero"/><path fill="#F777DE" d="M 171.628906 78.28125 L 282.460938 78.28125 L 282.460938 127.242188 L 171.628906 127.242188 Z M 171.628906 78.28125 " fill-opacity="1" fill-rule="nonzero"/>
<path fill="#F777DE" d="M 171.628906 162.480469 L 282.460938 162.480469 L 282.460938 211.441406 L 171.628906 211.441406 Z M 171.628906 162.480469 " fill-opacity="1" fill-rule="nonzero"/>
<path fill="#F777DE" d="M 171.628906 246.414062 L 282.460938 246.414062 L 282.460938 295.371094 L 171.628906 295.371094 Z M 171.628906 246.414062 " fill-opacity="1" fill-rule="nonzero"/>
</svg>