<svg xmlns="http://www.w3.org/2000/svg" xmlns:xlink="http://www.w3.org/1999/xlink" width="120" zoomAndPan="magnify" viewBox="0 0 375 374.999991" height="120" preserveAspectRatio="xMidYMid meet" version="1.0">
<path fill="#2862E9" d="M 188.125 369.9375 C 185.964844 369.949219 183.859375 369.617188 181.808594 368.9375 L 61.894531 329.007812 C 61.011719 328.714844 60.15625 328.359375 59.328125 327.949219 C 58.496094 327.539062 57.699219 327.070312 56.933594 326.546875 C 56.164062 326.023438 55.441406 325.449219 54.753906 324.828125 C 54.070312 324.203125 53.429688 323.535156 52.835938 322.820312 C 52.242188 322.109375 51.703125 321.359375 51.214844 320.570312 C 50.726562 319.78125 50.296875 318.964844 49.921875 318.117188 C 49.546875 317.269531 49.234375 316.398438 48.980469 315.507812 C 48.730469 314.617188 48.539062 313.710938 48.414062 312.792969 L 8.441406 23.285156 C 8.339844 22.578125 8.28125 21.871094 8.257812 21.160156 C 8.234375 20.449219 8.25 19.738281 8.304688 19.027344 C 8.359375 18.320312 8.449219 17.613281 8.578125 16.914062 C 8.707031 16.214844 8.875 15.523438 9.078125 14.839844 C 9.28125 14.160156 9.519531 13.488281 9.792969 12.832031 C 10.066406 12.175781 10.375 11.535156 10.71875 10.910156 C 11.0625 10.289062 11.4375 9.683594 11.847656 9.101562 C 12.253906 8.519531 12.691406 7.957031 13.160156 7.421875 C 13.625 6.882812 14.121094 6.375 14.644531 5.890625 C 15.167969 5.40625 15.714844 4.949219 16.285156 4.523438 C 16.855469 4.101562 17.449219 3.707031 18.0625 3.34375 C 18.671875 2.980469 19.304688 2.652344 19.953125 2.359375 C 20.601562 2.0625 21.261719 1.804688 21.941406 1.578125 C 22.617188 1.355469 23.300781 1.167969 24 1.015625 C 24.695312 0.867188 25.398438 0.753906 26.105469 0.675781 C 26.8125 0.601562 27.523438 0.5625 28.234375 0.5625 L 348.015625 0.5625 C 348.726562 0.5625 349.4375 0.601562 350.144531 0.675781 C 350.851562 0.753906 351.550781 0.867188 352.25 1.015625 C 352.945312 1.167969 353.628906 1.355469 354.304688 1.578125 C 354.980469 1.800781 355.640625 2.0625 356.289062 2.355469 C 356.9375 2.648438 357.566406 2.976562 358.179688 3.339844 C 358.792969 3.703125 359.382812 4.09375 359.953125 4.519531 C 360.527344 4.945312 361.070312 5.398438 361.59375 5.882812 C 362.117188 6.363281 362.609375 6.875 363.078125 7.410156 C 363.546875 7.945312 363.984375 8.507812 364.390625 9.089844 C 364.800781 9.671875 365.175781 10.273438 365.519531 10.898438 C 365.863281 11.519531 366.171875 12.160156 366.445312 12.816406 C 366.722656 13.46875 366.960938 14.140625 367.164062 14.820312 C 367.367188 15.5 367.535156 16.191406 367.664062 16.890625 C 367.792969 17.589844 367.886719 18.292969 367.9375 19.003906 C 367.992188 19.710938 368.011719 20.421875 367.988281 21.132812 C 367.96875 21.84375 367.90625 22.550781 367.8125 23.253906 L 327.839844 312.765625 C 327.714844 313.683594 327.523438 314.589844 327.273438 315.480469 C 327.019531 316.375 326.707031 317.246094 326.335938 318.097656 C 325.960938 318.945312 325.53125 319.765625 325.042969 320.554688 C 324.554688 321.34375 324.015625 322.09375 323.421875 322.808594 C 322.828125 323.523438 322.1875 324.191406 321.503906 324.820312 C 320.816406 325.445312 320.089844 326.019531 319.324219 326.542969 C 318.558594 327.066406 317.757812 327.535156 316.925781 327.945312 C 316.09375 328.359375 315.238281 328.714844 314.359375 329.007812 L 194.441406 368.9375 C 192.390625 369.617188 190.285156 369.949219 188.125 369.9375 Z M 86.316406 295.0625 L 188.125 328.925781 L 289.933594 294.984375 L 325.082031 40.496094 L 51.21875 40.496094 Z M 86.316406 295.0625 " fill-opacity="1" fill-rule="nonzero"/>
<path fill="#FAFAFA" d="M 188.125 285.082031 C 186.167969 285.082031 184.253906 284.800781 182.378906 284.242188 L 132.414062 269.269531 C 130.679688 268.746094 129.042969 268.003906 127.507812 267.039062 C 125.976562 266.074219 124.597656 264.921875 123.378906 263.582031 C 122.160156 262.242188 121.140625 260.765625 120.324219 259.152344 C 119.503906 257.535156 118.917969 255.839844 118.5625 254.0625 L 116.566406 244.082031 C 116.441406 243.457031 116.347656 242.832031 116.28125 242.199219 C 116.21875 241.570312 116.183594 240.9375 116.179688 240.304688 C 116.175781 239.667969 116.199219 239.035156 116.257812 238.40625 C 116.3125 237.773438 116.398438 237.144531 116.515625 236.523438 C 116.632812 235.898438 116.777344 235.28125 116.953125 234.671875 C 117.128906 234.0625 117.332031 233.460938 117.5625 232.871094 C 117.796875 232.28125 118.054688 231.703125 118.34375 231.136719 C 118.628906 230.574219 118.941406 230.023438 119.28125 229.484375 C 119.621094 228.949219 119.988281 228.433594 120.375 227.929688 C 120.765625 227.429688 121.179688 226.949219 121.613281 226.488281 C 122.046875 226.023438 122.503906 225.585938 122.980469 225.167969 C 123.457031 224.75 123.953125 224.355469 124.46875 223.984375 C 124.984375 223.613281 125.515625 223.265625 126.0625 222.945312 C 126.613281 222.625 127.171875 222.332031 127.75 222.0625 C 128.324219 221.796875 128.914062 221.558594 129.511719 221.347656 C 130.109375 221.136719 130.714844 220.953125 131.332031 220.800781 C 131.949219 220.648438 132.570312 220.523438 133.199219 220.429688 C 133.828125 220.335938 134.457031 220.269531 135.089844 220.238281 C 135.726562 220.203125 136.359375 220.199219 136.992188 220.226562 C 137.628906 220.25 138.257812 220.308594 138.886719 220.394531 C 139.515625 220.480469 140.140625 220.597656 140.757812 220.742188 C 141.375 220.886719 141.984375 221.0625 142.585938 221.265625 C 143.1875 221.46875 143.777344 221.703125 144.355469 221.960938 C 144.9375 222.222656 145.5 222.507812 146.054688 222.824219 C 146.605469 223.136719 147.140625 223.476562 147.660156 223.839844 C 148.179688 224.207031 148.679688 224.59375 149.164062 225.007812 C 149.644531 225.417969 150.105469 225.851562 150.546875 226.308594 C 150.988281 226.765625 151.40625 227.242188 151.800781 227.738281 C 152.195312 228.234375 152.566406 228.75 152.914062 229.28125 C 153.261719 229.8125 153.582031 230.359375 153.875 230.921875 C 154.167969 231.480469 154.4375 232.058594 154.675781 232.644531 C 154.914062 233.230469 155.125 233.828125 155.308594 234.4375 L 188.125 244.269531 L 220.101562 234.6875 L 225.039062 200.226562 L 168.140625 200.226562 C 167.128906 200.226562 166.125 200.15625 165.125 200.003906 C 164.125 199.855469 163.144531 199.632812 162.179688 199.335938 C 161.210938 199.035156 160.273438 198.667969 159.367188 198.226562 C 158.457031 197.789062 157.585938 197.28125 156.753906 196.710938 C 155.921875 196.136719 155.136719 195.507812 154.398438 194.816406 C 153.664062 194.125 152.980469 193.382812 152.359375 192.589844 C 151.734375 191.796875 151.175781 190.957031 150.675781 190.078125 C 150.179688 189.199219 149.753906 188.289062 149.394531 187.347656 C 149.035156 186.402344 148.75 185.4375 148.539062 184.449219 C 148.324219 183.464844 148.1875 182.464844 148.128906 181.457031 C 148.066406 180.453125 148.082031 179.445312 148.175781 178.441406 C 148.265625 177.433594 148.433594 176.441406 148.675781 175.460938 C 148.917969 174.484375 149.234375 173.527344 149.621094 172.59375 C 150.011719 171.664062 150.464844 170.765625 150.992188 169.902344 C 151.515625 169.039062 152.101562 168.21875 152.75 167.445312 C 153.398438 166.671875 154.101562 165.953125 154.859375 165.285156 L 205.511719 120.359375 L 118.171875 120.359375 C 117.519531 120.359375 116.867188 120.328125 116.214844 120.265625 C 115.5625 120.199219 114.917969 120.105469 114.273438 119.976562 C 113.632812 119.847656 113 119.691406 112.371094 119.5 C 111.746094 119.308594 111.128906 119.089844 110.527344 118.839844 C 109.921875 118.589844 109.328125 118.3125 108.753906 118.003906 C 108.175781 117.695312 107.613281 117.359375 107.070312 116.996094 C 106.527344 116.632812 106 116.242188 105.496094 115.828125 C 104.988281 115.414062 104.503906 114.972656 104.042969 114.511719 C 103.578125 114.050781 103.140625 113.566406 102.722656 113.058594 C 102.308594 112.554688 101.917969 112.03125 101.554688 111.484375 C 101.191406 110.941406 100.855469 110.382812 100.546875 109.804688 C 100.238281 109.230469 99.960938 108.636719 99.707031 108.035156 C 99.457031 107.429688 99.238281 106.816406 99.046875 106.191406 C 98.859375 105.5625 98.699219 104.929688 98.570312 104.289062 C 98.445312 103.648438 98.347656 103 98.285156 102.351562 C 98.21875 101.699219 98.1875 101.046875 98.1875 100.394531 C 98.1875 99.738281 98.21875 99.085938 98.285156 98.4375 C 98.347656 97.785156 98.445312 97.140625 98.570312 96.5 C 98.699219 95.855469 98.859375 95.222656 99.046875 94.597656 C 99.238281 93.972656 99.457031 93.355469 99.707031 92.753906 C 99.960938 92.148438 100.238281 91.558594 100.546875 90.980469 C 100.855469 90.40625 101.191406 89.84375 101.554688 89.300781 C 101.917969 88.757812 102.308594 88.234375 102.722656 87.726562 C 103.140625 87.222656 103.578125 86.738281 104.042969 86.277344 C 104.503906 85.8125 104.988281 85.375 105.496094 84.960938 C 106 84.542969 106.527344 84.15625 107.070312 83.792969 C 107.613281 83.429688 108.175781 83.09375 108.753906 82.785156 C 109.328125 82.476562 109.921875 82.199219 110.527344 81.949219 C 111.128906 81.695312 111.746094 81.476562 112.371094 81.289062 C 113 81.097656 113.632812 80.9375 114.273438 80.8125 C 114.917969 80.683594 115.5625 80.585938 116.214844 80.523438 C 116.867188 80.460938 117.519531 80.425781 118.171875 80.425781 L 258.078125 80.425781 C 259.085938 80.425781 260.09375 80.496094 261.089844 80.648438 C 262.089844 80.796875 263.074219 81.019531 264.039062 81.316406 C 265.003906 81.617188 265.941406 81.984375 266.851562 82.425781 C 267.757812 82.863281 268.628906 83.371094 269.464844 83.941406 C 270.296875 84.515625 271.078125 85.144531 271.816406 85.835938 C 272.554688 86.527344 273.234375 87.269531 273.859375 88.0625 C 274.480469 88.855469 275.042969 89.695312 275.539062 90.574219 C 276.035156 91.449219 276.464844 92.363281 276.824219 93.304688 C 277.179688 94.25 277.464844 95.214844 277.679688 96.203125 C 277.890625 97.1875 278.027344 98.1875 278.089844 99.191406 C 278.148438 100.199219 278.132812 101.207031 278.042969 102.210938 C 277.949219 103.21875 277.78125 104.210938 277.539062 105.191406 C 277.296875 106.167969 276.980469 107.125 276.59375 108.058594 C 276.207031 108.988281 275.75 109.886719 275.226562 110.75 C 274.703125 111.613281 274.113281 112.429688 273.464844 113.207031 C 272.820312 113.980469 272.117188 114.699219 271.359375 115.367188 L 220.703125 160.292969 L 248.082031 160.292969 C 248.796875 160.292969 249.507812 160.332031 250.21875 160.40625 C 250.929688 160.484375 251.632812 160.597656 252.332031 160.746094 C 253.027344 160.898438 253.714844 161.085938 254.394531 161.3125 C 255.070312 161.539062 255.734375 161.796875 256.382812 162.09375 C 257.03125 162.390625 257.664062 162.71875 258.277344 163.085938 C 258.890625 163.449219 259.484375 163.84375 260.054688 164.269531 C 260.628906 164.699219 261.175781 165.152344 261.699219 165.640625 C 262.222656 166.125 262.714844 166.636719 263.183594 167.175781 C 263.652344 167.714844 264.089844 168.277344 264.496094 168.863281 C 264.902344 169.449219 265.277344 170.054688 265.621094 170.679688 C 265.964844 171.304688 266.273438 171.949219 266.546875 172.605469 C 266.820312 173.265625 267.054688 173.9375 267.257812 174.621094 C 267.460938 175.304688 267.625 176 267.75 176.699219 C 267.878906 177.402344 267.96875 178.109375 268.019531 178.820312 C 268.070312 179.53125 268.082031 180.242188 268.058594 180.957031 C 268.035156 181.667969 267.972656 182.378906 267.871094 183.082031 L 257.878906 252.964844 C 257.742188 253.902344 257.542969 254.828125 257.277344 255.738281 C 257.011719 256.648438 256.683594 257.535156 256.289062 258.398438 C 255.898438 259.261719 255.445312 260.089844 254.9375 260.890625 C 254.425781 261.6875 253.859375 262.449219 253.242188 263.167969 C 252.621094 263.886719 251.957031 264.554688 251.242188 265.179688 C 250.527344 265.804688 249.773438 266.375 248.976562 266.890625 C 248.179688 267.40625 247.351562 267.863281 246.492188 268.261719 C 245.628906 268.660156 244.746094 268.996094 243.835938 269.269531 L 193.871094 284.242188 C 191.996094 284.800781 190.082031 285.082031 188.125 285.082031 Z M 188.125 285.082031 " fill-opacity="1" fill-rule="nonzero"/>
</svg>