<svg xmlns="http://www.w3.org/2000/svg" xmlns:xlink="http://www.w3.org/1999/xlink" width="120" zoomAndPan="magnify" viewBox="0 0 375 374.999991" height="120" preserveAspectRatio="xMidYMid meet" version="1.0"><defs><clipPath id="3ff8b07c94"><path d="M 9 4 L 366.363281 4 L 366.363281 371 L 9 371 Z M 9 4 " clip-rule="nonzero"/></clipPath></defs><g clip-path="url(#3ff8b07c94)">
<path fill="#E96431" d="M 187.984375 370.542969 C 185.84375 370.554688 183.753906 370.222656 181.722656 369.554688 L 62.800781 329.945312 C 61.929688 329.652344 61.082031 329.304688 60.257812 328.894531 C 59.433594 328.488281 58.640625 328.023438 57.882812 327.503906 C 57.125 326.984375 56.402344 326.417969 55.722656 325.796875 C 55.042969 325.179688 54.410156 324.515625 53.820312 323.808594 C 53.234375 323.101562 52.699219 322.359375 52.214844 321.578125 C 51.730469 320.792969 51.300781 319.984375 50.929688 319.140625 C 50.558594 318.300781 50.25 317.4375 50 316.554688 C 49.746094 315.671875 49.558594 314.773438 49.433594 313.863281 L 9.792969 26.691406 C 9.695312 25.992188 9.636719 25.289062 9.613281 24.585938 C 9.59375 23.878906 9.605469 23.175781 9.660156 22.472656 C 9.714844 21.765625 9.804688 21.066406 9.933594 20.375 C 10.058594 19.679688 10.222656 18.992188 10.425781 18.316406 C 10.625 17.640625 10.863281 16.976562 11.136719 16.324219 C 11.410156 15.675781 11.714844 15.039062 12.054688 14.421875 C 12.394531 13.800781 12.765625 13.203125 13.171875 12.625 C 13.574219 12.046875 14.011719 11.488281 14.472656 10.957031 C 14.9375 10.425781 15.429688 9.917969 15.945312 9.4375 C 16.464844 8.957031 17.007812 8.507812 17.574219 8.085938 C 18.140625 7.664062 18.726562 7.273438 19.335938 6.914062 C 19.941406 6.554688 20.566406 6.226562 21.210938 5.933594 C 21.855469 5.640625 22.511719 5.386719 23.179688 5.164062 C 23.851562 4.941406 24.53125 4.753906 25.222656 4.605469 C 25.914062 4.453125 26.609375 4.34375 27.3125 4.265625 C 28.015625 4.191406 28.71875 4.15625 29.425781 4.15625 L 346.542969 4.15625 C 347.25 4.15625 347.953125 4.191406 348.65625 4.265625 C 349.359375 4.34375 350.054688 4.457031 350.742188 4.605469 C 351.433594 4.753906 352.113281 4.941406 352.78125 5.160156 C 353.453125 5.382812 354.109375 5.640625 354.75 5.933594 C 355.394531 6.226562 356.019531 6.550781 356.625 6.910156 C 357.234375 7.269531 357.820312 7.660156 358.386719 8.078125 C 358.953125 8.5 359.492188 8.953125 360.011719 9.429688 C 360.527344 9.910156 361.019531 10.414062 361.484375 10.945312 C 361.945312 11.480469 362.382812 12.035156 362.785156 12.613281 C 363.191406 13.191406 363.5625 13.789062 363.902344 14.40625 C 364.242188 15.023438 364.550781 15.65625 364.824219 16.308594 C 365.09375 16.957031 365.332031 17.621094 365.535156 18.296875 C 365.734375 18.972656 365.902344 19.65625 366.03125 20.351562 C 366.160156 21.042969 366.25 21.742188 366.304688 22.445312 C 366.359375 23.148438 366.375 23.851562 366.351562 24.558594 C 366.332031 25.261719 366.273438 25.964844 366.175781 26.664062 L 326.535156 313.832031 C 326.410156 314.746094 326.226562 315.644531 325.976562 316.527344 C 325.726562 317.414062 325.414062 318.277344 325.042969 319.121094 C 324.675781 319.964844 324.246094 320.777344 323.761719 321.558594 C 323.28125 322.34375 322.742188 323.089844 322.15625 323.796875 C 321.566406 324.503906 320.933594 325.167969 320.253906 325.789062 C 319.574219 326.410156 318.851562 326.980469 318.09375 327.5 C 317.332031 328.019531 316.539062 328.484375 315.714844 328.894531 C 314.890625 329.300781 314.042969 329.652344 313.167969 329.945312 L 194.25 369.554688 C 192.214844 370.222656 190.125 370.554688 187.984375 370.542969 Z M 87.023438 296.277344 L 187.984375 329.863281 L 288.949219 296.195312 L 323.800781 43.765625 L 52.21875 43.765625 Z M 87.023438 296.277344 " fill-opacity="1" fill-rule="nonzero"/></g>
<path fill="#FAFAFA" d="M 187.984375 286.375 C 186.046875 286.371094 184.144531 286.09375 182.285156 285.542969 L 132.738281 270.6875 C 131.015625 270.171875 129.394531 269.433594 127.875 268.476562 C 126.351562 267.519531 124.988281 266.378906 123.777344 265.050781 C 122.566406 263.722656 121.558594 262.253906 120.746094 260.652344 C 119.9375 259.050781 119.355469 257.367188 119 255.605469 L 117.019531 245.703125 C 116.898438 245.085938 116.804688 244.464844 116.738281 243.839844 C 116.675781 243.214844 116.640625 242.585938 116.636719 241.957031 C 116.632812 241.328125 116.660156 240.699219 116.714844 240.074219 C 116.769531 239.449219 116.855469 238.824219 116.972656 238.207031 C 117.085938 237.585938 117.230469 236.976562 117.402344 236.371094 C 117.578125 235.765625 117.78125 235.171875 118.007812 234.585938 C 118.238281 234 118.496094 233.425781 118.78125 232.867188 C 119.066406 232.304688 119.378906 231.757812 119.714844 231.226562 C 120.050781 230.695312 120.414062 230.183594 120.800781 229.683594 C 121.1875 229.1875 121.59375 228.710938 122.027344 228.253906 C 122.457031 227.792969 122.910156 227.359375 123.382812 226.945312 C 123.855469 226.527344 124.347656 226.136719 124.859375 225.769531 C 125.371094 225.402344 125.894531 225.058594 126.441406 224.738281 C 126.984375 224.421875 127.539062 224.128906 128.109375 223.867188 C 128.683594 223.601562 129.265625 223.363281 129.859375 223.152344 C 130.453125 222.945312 131.054688 222.765625 131.664062 222.613281 C 132.277344 222.460938 132.890625 222.335938 133.515625 222.242188 C 134.136719 222.148438 134.761719 222.085938 135.390625 222.054688 C 136.019531 222.019531 136.648438 222.015625 137.277344 222.042969 C 137.90625 222.066406 138.535156 222.125 139.15625 222.207031 C 139.78125 222.292969 140.398438 222.410156 141.011719 222.554688 C 141.625 222.699219 142.230469 222.871094 142.824219 223.074219 C 143.421875 223.277344 144.007812 223.507812 144.582031 223.765625 C 145.15625 224.023438 145.714844 224.308594 146.261719 224.617188 C 146.808594 224.929688 147.339844 225.265625 147.855469 225.628906 C 148.371094 225.988281 148.867188 226.375 149.347656 226.785156 C 149.824219 227.195312 150.28125 227.625 150.71875 228.078125 C 151.15625 228.53125 151.570312 229.003906 151.964844 229.496094 C 152.355469 229.988281 152.722656 230.496094 153.066406 231.023438 C 153.410156 231.550781 153.726562 232.09375 154.019531 232.648438 C 154.3125 233.207031 154.574219 233.777344 154.8125 234.359375 C 155.050781 234.941406 155.261719 235.535156 155.441406 236.136719 L 187.984375 245.890625 L 219.695312 236.386719 L 224.59375 202.203125 L 128.523438 202.203125 C 127.328125 202.203125 126.140625 202.09375 124.960938 201.878906 C 123.785156 201.664062 122.636719 201.34375 121.515625 200.921875 C 120.394531 200.496094 119.320312 199.976562 118.296875 199.359375 C 117.269531 198.738281 116.308594 198.035156 115.410156 197.242188 C 114.515625 196.449219 113.695312 195.585938 112.953125 194.644531 C 112.214844 193.703125 111.5625 192.703125 111.003906 191.644531 C 110.445312 190.589844 109.984375 189.488281 109.625 188.347656 C 109.265625 187.207031 109.011719 186.042969 108.863281 184.855469 L 98.953125 105.632812 C 98.867188 104.941406 98.816406 104.242188 98.804688 103.542969 C 98.792969 102.84375 98.816406 102.144531 98.875 101.445312 C 98.9375 100.75 99.035156 100.058594 99.171875 99.371094 C 99.304688 98.683594 99.476562 98.007812 99.683594 97.335938 C 99.890625 96.667969 100.128906 96.011719 100.40625 95.371094 C 100.683594 94.726562 100.992188 94.097656 101.335938 93.488281 C 101.679688 92.878906 102.050781 92.289062 102.457031 91.71875 C 102.863281 91.144531 103.296875 90.597656 103.761719 90.074219 C 104.222656 89.546875 104.714844 89.050781 105.230469 88.578125 C 105.746094 88.105469 106.285156 87.660156 106.851562 87.246094 C 107.414062 86.828125 108 86.445312 108.601562 86.089844 C 109.207031 85.734375 109.828125 85.414062 110.46875 85.128906 C 111.105469 84.839844 111.757812 84.585938 112.421875 84.367188 C 113.089844 84.148438 113.761719 83.964844 114.449219 83.816406 C 115.132812 83.671875 115.824219 83.558594 116.519531 83.484375 C 117.214844 83.410156 117.914062 83.375 118.617188 83.375 L 257.355469 83.375 C 258.003906 83.375 258.652344 83.40625 259.296875 83.46875 C 259.945312 83.53125 260.585938 83.628906 261.222656 83.753906 C 261.859375 83.882812 262.488281 84.039062 263.109375 84.226562 C 263.730469 84.414062 264.339844 84.632812 264.941406 84.882812 C 265.539062 85.128906 266.125 85.40625 266.699219 85.710938 C 267.269531 86.019531 267.828125 86.351562 268.367188 86.710938 C 268.90625 87.070312 269.425781 87.457031 269.929688 87.871094 C 270.429688 88.28125 270.910156 88.714844 271.371094 89.175781 C 271.828125 89.632812 272.265625 90.113281 272.675781 90.613281 C 273.085938 91.117188 273.472656 91.636719 273.835938 92.175781 C 274.195312 92.714844 274.527344 93.269531 274.835938 93.84375 C 275.140625 94.414062 275.417969 95 275.667969 95.601562 C 275.914062 96.199219 276.132812 96.808594 276.320312 97.429688 C 276.511719 98.050781 276.667969 98.679688 276.792969 99.316406 C 276.921875 99.949219 277.015625 100.59375 277.078125 101.238281 C 277.144531 101.882812 277.175781 102.53125 277.175781 103.179688 C 277.175781 103.828125 277.144531 104.472656 277.078125 105.121094 C 277.015625 105.765625 276.921875 106.40625 276.792969 107.042969 C 276.667969 107.679688 276.511719 108.308594 276.320312 108.925781 C 276.132812 109.546875 275.914062 110.160156 275.667969 110.757812 C 275.417969 111.355469 275.140625 111.941406 274.835938 112.515625 C 274.527344 113.085938 274.195312 113.640625 273.835938 114.179688 C 273.472656 114.722656 273.085938 115.242188 272.675781 115.742188 C 272.265625 116.242188 271.828125 116.722656 271.371094 117.183594 C 270.910156 117.640625 270.429688 118.078125 269.929688 118.488281 C 269.425781 118.898438 268.90625 119.285156 268.367188 119.644531 C 267.828125 120.007812 267.269531 120.339844 266.699219 120.644531 C 266.125 120.949219 265.539062 121.226562 264.941406 121.476562 C 264.339844 121.722656 263.730469 121.941406 263.109375 122.128906 C 262.488281 122.320312 261.859375 122.476562 261.222656 122.601562 C 260.585938 122.730469 259.945312 122.824219 259.296875 122.886719 C 258.652344 122.953125 258.003906 122.984375 257.355469 122.984375 L 141.070312 122.984375 L 146.027344 162.59375 L 247.445312 162.59375 C 248.152344 162.59375 248.859375 162.628906 249.5625 162.707031 C 250.265625 162.78125 250.964844 162.894531 251.65625 163.046875 C 252.347656 163.195312 253.03125 163.382812 253.703125 163.605469 C 254.375 163.828125 255.03125 164.085938 255.675781 164.378906 C 256.320312 164.675781 256.945312 165 257.554688 165.363281 C 258.164062 165.722656 258.75 166.117188 259.316406 166.539062 C 259.886719 166.960938 260.429688 167.414062 260.945312 167.898438 C 261.464844 168.378906 261.957031 168.886719 262.417969 169.421875 C 262.882812 169.957031 263.316406 170.515625 263.722656 171.09375 C 264.125 171.675781 264.496094 172.277344 264.835938 172.898438 C 265.175781 173.519531 265.480469 174.15625 265.753906 174.808594 C 266.023438 175.460938 266.261719 176.128906 266.460938 176.804688 C 266.660156 177.484375 266.824219 178.171875 266.949219 178.867188 C 267.074219 179.5625 267.164062 180.265625 267.214844 180.96875 C 267.265625 181.675781 267.277344 182.382812 267.253906 183.089844 C 267.230469 183.796875 267.167969 184.5 267.066406 185.199219 L 257.15625 254.515625 C 257.023438 255.449219 256.824219 256.363281 256.5625 257.265625 C 256.296875 258.167969 255.972656 259.050781 255.582031 259.90625 C 255.195312 260.761719 254.746094 261.585938 254.238281 262.378906 C 253.734375 263.171875 253.171875 263.921875 252.558594 264.636719 C 251.945312 265.347656 251.285156 266.015625 250.578125 266.632812 C 249.867188 267.25 249.121094 267.816406 248.332031 268.328125 C 247.539062 268.839844 246.71875 269.292969 245.867188 269.691406 C 245.011719 270.085938 244.132812 270.417969 243.234375 270.6875 L 193.683594 285.542969 C 191.824219 286.09375 189.925781 286.371094 187.984375 286.375 Z M 187.984375 286.375 " fill-opacity="1" fill-rule="nonzero"/></svg>