<svg xmlns="http://www.w3.org/2000/svg" xmlns:xlink="http://www.w3.org/1999/xlink" width="120" zoomAndPan="magnify" viewBox="0 0 375 374.999991" height="120" preserveAspectRatio="xMidYMid meet" version="1.0"><defs><clipPath id="604fbe7a95"><path d="M 22.78125 22.78125 L 352.03125 22.78125 L 352.03125 352.03125 L 22.78125 352.03125 Z M 22.78125 22.78125 " clip-rule="nonzero"/></clipPath></defs><g clip-path="url(#604fbe7a95)">
<path fill="#F7A748" d="M 43.695312 22.78125 C 32.246094 22.78125 22.78125 32.246094 22.78125 43.695312 L 22.78125 331.117188 C 22.78125 342.570312 32.246094 352.03125 43.695312 352.03125 L 331.117188 352.03125 C 342.570312 352.03125 352.03125 342.601562 352.03125 331.117188 L 352.03125 43.695312 C 352.03125 32.246094 342.601562 22.78125 331.117188 22.78125 Z M 43.695312 38.460938 L 331.117188 38.460938 C 334.027344 38.460938 336.355469 40.789062 336.355469 43.695312 L 336.355469 331.117188 C 336.355469 334.027344 334.027344 336.355469 331.117188 336.355469 L 43.695312 336.355469 C 40.789062 336.355469 38.460938 334.027344 38.460938 331.117188 L 38.460938 43.695312 C 38.460938 40.789062 40.789062 38.460938 43.695312 38.460938 Z M 171.730469 171.730469 L 171.730469 270.300781 C 171.730469 285.429688 166.003906 289.316406 156.050781 289.316406 C 145.636719 289.316406 138.410156 282.824219 133.632812 274.40625 L 109.015625 289.316406 C 116.148438 304.414062 133.632812 320.675781 157.886719 320.675781 C 184.710938 320.675781 203.085938 306.40625 203.085938 275.078125 L 203.085938 171.730469 Z M 269.351562 171.730469 C 242.648438 171.730469 225.53125 188.816406 225.53125 211.261719 C 225.53125 235.605469 239.894531 247.121094 261.480469 256.308594 L 268.953125 259.523438 C 282.582031 265.492188 289.316406 269.136719 289.316406 279.394531 C 289.316406 287.941406 282.824219 294.125 270.425781 294.125 C 255.664062 294.125 248.683594 284.113281 242.28125 273.640625 L 218.765625 289.316406 C 227.554688 306.679688 243.324219 320.675781 271.097656 320.675781 C 299.515625 320.675781 320.675781 305.914062 320.675781 279 C 320.675781 254.011719 306.34375 242.894531 280.898438 231.992188 L 273.425781 228.808594 C 260.59375 223.234375 255.019531 219.621094 255.019531 210.648438 C 255.019531 203.390625 260.59375 197.820312 269.351562 197.820312 C 277.957031 197.820312 283.46875 201.460938 288.582031 210.648438 L 311.886719 195.707031 C 302.058594 178.34375 288.367188 171.730469 269.351562 171.730469 Z M 269.351562 171.730469 " fill-opacity="1" fill-rule="nonzero"/></g>
</svg>