<svg xmlns="http://www.w3.org/2000/svg" xmlns:xlink="http://www.w3.org/1999/xlink" width="120" zoomAndPan="magnify" viewBox="0 0 375 374.999991" height="120" preserveAspectRatio="xMidYMid meet" version="1.0"><defs>
<clipPath id="f6b0eee269">
<path d="M 31.964844 49 L 343.214844 49 L 343.214844 326 L 31.964844 326 Z M 31.964844 49 " clip-rule="nonzero"/>
</clipPath>
</defs>
<g clip-path="url(#f6b0eee269)">
<path fill="#00d8ff" d="M 287.761719 138.78125 C 284.449219 137.648438 281.113281 136.597656 277.746094 135.628906 C 278.3125 133.324219 278.832031 131.046875 279.292969 128.808594 C 286.875 92.054688 281.917969 62.445312 264.992188 52.695312 C 248.761719 43.347656 222.21875 53.09375 195.410156 76.394531 C 192.769531 78.695312 190.1875 81.0625 187.664062 83.492188 C 185.976562 81.875 184.257812 80.292969 182.511719 78.738281 C 154.414062 53.824219 126.253906 43.324219 109.34375 53.101562 C 93.128906 62.476562 88.328125 90.3125 95.152344 125.144531 C 95.832031 128.59375 96.597656 132.027344 97.453125 135.4375 C 93.464844 136.570312 89.617188 137.773438 85.9375 139.054688 C 53 150.523438 31.964844 168.5 31.964844 187.144531 C 31.964844 206.402344 54.546875 225.714844 88.851562 237.425781 C 91.636719 238.375 94.441406 239.25 97.265625 240.054688 C 96.347656 243.730469 95.53125 247.425781 94.820312 251.148438 C 88.316406 285.375 93.394531 312.554688 109.566406 321.867188 C 126.269531 331.488281 154.304688 321.601562 181.601562 297.769531 C 183.816406 295.832031 185.980469 293.839844 188.09375 291.792969 C 190.824219 294.425781 193.628906 296.980469 196.503906 299.457031 C 222.945312 322.183594 249.0625 331.359375 265.214844 322.015625 C 281.902344 312.367188 287.328125 283.171875 280.285156 247.652344 C 279.730469 244.867188 279.109375 242.097656 278.421875 239.347656 C 280.390625 238.765625 282.320312 238.164062 284.207031 237.539062 C 319.871094 225.738281 343.078125 206.660156 343.078125 187.144531 C 343.078125 168.433594 321.363281 150.335938 287.761719 138.78125 Z M 280.027344 224.941406 C 278.324219 225.503906 276.578125 226.046875 274.800781 226.574219 C 270.863281 214.125 265.550781 200.886719 259.046875 187.210938 C 265.25 173.855469 270.359375 160.789062 274.1875 148.421875 C 277.371094 149.339844 280.460938 150.308594 283.4375 151.332031 C 312.226562 161.234375 329.789062 175.867188 329.789062 187.144531 C 329.789062 199.15625 310.820312 214.75 280.027344 224.941406 Z M 267.25 250.230469 C 270.363281 265.933594 270.804688 280.136719 268.742188 291.238281 C 266.890625 301.214844 263.164062 307.867188 258.558594 310.53125 C 248.753906 316.199219 227.785156 308.832031 205.171875 289.394531 C 202.5 287.09375 199.890625 284.71875 197.351562 282.269531 C 206.117188 272.695312 214.878906 261.5625 223.429688 249.199219 C 238.46875 247.867188 252.679688 245.6875 265.5625 242.710938 C 266.183594 245.203125 266.746094 247.710938 267.25 250.230469 Z M 138.027344 309.550781 C 128.449219 312.929688 120.820312 313.023438 116.207031 310.371094 C 106.394531 304.714844 102.316406 282.894531 107.878906 253.625 C 108.542969 250.164062 109.300781 246.722656 110.152344 243.308594 C 122.894531 246.125 137 248.148438 152.078125 249.367188 C 160.6875 261.464844 169.699219 272.585938 178.785156 282.324219 C 176.851562 284.1875 174.878906 286.007812 172.855469 287.773438 C 160.785156 298.3125 148.691406 305.789062 138.027344 309.550781 Z M 93.152344 224.867188 C 77.984375 219.6875 65.453125 212.957031 56.867188 205.613281 C 49.148438 199.015625 45.253906 192.460938 45.253906 187.144531 C 45.253906 175.828125 62.144531 161.398438 90.3125 151.589844 C 93.730469 150.398438 97.308594 149.277344 101.023438 148.222656 C 104.914062 160.871094 110.023438 174.09375 116.183594 187.46875 C 109.941406 201.039062 104.761719 214.472656 100.832031 227.269531 C 98.253906 226.53125 95.691406 225.730469 93.152344 224.867188 Z M 108.195312 122.59375 C 102.347656 92.75 106.230469 70.238281 116.003906 64.589844 C 126.410156 58.570312 149.425781 67.152344 173.6875 88.664062 C 175.269531 90.070312 176.824219 91.503906 178.355469 92.96875 C 169.3125 102.664062 160.382812 113.699219 151.851562 125.726562 C 137.21875 127.078125 123.210938 129.253906 110.335938 132.167969 C 109.542969 128.996094 108.828125 125.804688 108.195312 122.597656 Z M 242.398438 155.691406 C 239.355469 150.445312 236.203125 145.261719 232.9375 140.152344 C 242.863281 141.40625 252.375 143.070312 261.304688 145.105469 C 258.625 153.6875 255.28125 162.660156 251.347656 171.863281 C 248.472656 166.414062 245.488281 161.023438 242.398438 155.691406 Z M 187.667969 102.453125 C 193.800781 109.089844 199.941406 116.492188 205.976562 124.527344 C 193.726562 123.949219 181.457031 123.949219 169.207031 124.519531 C 175.253906 116.558594 181.445312 109.164062 187.667969 102.453125 Z M 132.59375 155.78125 C 129.539062 161.070312 126.609375 166.425781 123.808594 171.851562 C 119.9375 162.683594 116.628906 153.667969 113.921875 144.964844 C 122.800781 142.980469 132.265625 141.359375 142.128906 140.128906 C 138.828125 145.269531 135.648438 150.488281 132.59375 155.78125 Z M 142.414062 235.105469 C 132.222656 233.96875 122.613281 232.433594 113.738281 230.5 C 116.488281 221.640625 119.871094 212.433594 123.824219 203.070312 C 126.636719 208.5 129.578125 213.859375 132.644531 219.148438 C 135.796875 224.585938 139.0625 229.910156 142.414062 235.105469 Z M 188.039062 272.769531 C 181.738281 265.980469 175.453125 258.472656 169.316406 250.394531 C 175.273438 250.628906 181.347656 250.746094 187.519531 250.746094 C 193.863281 250.746094 200.128906 250.605469 206.300781 250.332031 C 200.242188 258.554688 194.125 266.074219 188.039062 272.769531 Z M 251.472656 202.59375 C 255.632812 212.058594 259.136719 221.21875 261.917969 229.925781 C 252.898438 231.984375 243.160156 233.636719 232.898438 234.867188 C 236.1875 229.660156 239.371094 224.390625 242.449219 219.058594 C 245.578125 213.636719 248.585938 208.148438 251.472656 202.59375 Z M 230.9375 212.425781 C 226.222656 220.601562 221.246094 228.621094 216.011719 236.476562 C 206.53125 237.148438 197.027344 237.480469 187.519531 237.476562 C 177.839844 237.476562 168.421875 237.171875 159.351562 236.585938 C 153.980469 228.75 148.910156 220.714844 144.144531 212.496094 L 144.148438 212.496094 C 139.40625 204.324219 134.976562 195.972656 130.871094 187.460938 C 134.96875 178.949219 139.382812 170.59375 144.105469 162.414062 C 148.828125 154.230469 153.859375 146.230469 159.191406 138.429688 C 168.441406 137.730469 177.929688 137.367188 187.519531 137.367188 C 197.152344 137.367188 206.652344 137.734375 215.902344 138.4375 C 221.179688 146.226562 226.179688 154.199219 230.894531 162.34375 C 235.632812 170.503906 240.105469 178.820312 244.304688 187.273438 C 240.148438 195.8125 235.691406 204.203125 230.9375 212.425781 Z M 258.355469 64.195312 C 268.769531 70.195312 272.824219 94.394531 266.277344 126.128906 C 265.859375 128.152344 265.390625 130.214844 264.878906 132.304688 C 251.972656 129.332031 237.957031 127.117188 223.28125 125.742188 C 214.730469 113.582031 205.875 102.53125 196.980469 92.960938 C 199.3125 90.714844 201.699219 88.53125 204.136719 86.40625 C 227.105469 66.441406 248.574219 58.5625 258.355469 64.195312 Z M 187.519531 159.398438 C 202.863281 159.398438 215.300781 171.820312 215.300781 187.144531 C 215.300781 202.46875 202.863281 214.890625 187.519531 214.890625 C 172.175781 214.890625 159.738281 202.46875 159.738281 187.144531 C 159.738281 171.820312 172.175781 159.398438 187.519531 159.398438 Z M 187.519531 159.398438 " fill-opacity="1" fill-rule="nonzero"/>
</g>
</svg>