<svg xmlns="http://www.w3.org/2000/svg" xmlns:xlink="http://www.w3.org/1999/xlink" width="80" zoomAndPan="magnify" viewBox="0 0 810 809.999993" height="1080" preserveAspectRatio="xMidYMid meet" version="1.0"><path fill="#FAFAFA" d="M 356.097656 55.496094 C 188.804688 74.042969 52.488281 209.042969 32.300781 376.09375 C 31.648438 381.339844 31.109375 386.59375 30.679688 391.863281 C 30.253906 397.128906 29.9375 402.402344 29.738281 407.683594 C 29.535156 412.964844 29.449219 418.25 29.472656 423.535156 C 29.5 428.816406 29.636719 434.101562 29.886719 439.378906 C 30.140625 444.65625 30.503906 449.929688 30.980469 455.191406 C 31.457031 460.453125 32.046875 465.703125 32.75 470.941406 C 33.453125 476.179688 34.265625 481.402344 35.191406 486.605469 C 36.117188 491.804688 37.152344 496.988281 38.300781 502.144531 C 39.449219 507.304688 40.707031 512.4375 42.074219 517.539062 C 43.441406 522.644531 44.917969 527.71875 46.503906 532.757812 C 48.089844 537.800781 49.78125 542.804688 51.582031 547.773438 C 53.382812 552.742188 55.285156 557.671875 57.296875 562.558594 C 59.308594 567.445312 61.421875 572.285156 63.640625 577.082031 C 65.859375 581.878906 68.179688 586.625 70.601562 591.324219 C 73.023438 596.019531 75.542969 600.664062 78.164062 605.253906 C 80.785156 609.839844 83.5 614.371094 86.316406 618.84375 C 89.132812 623.316406 92.039062 627.726562 95.042969 632.074219 C 98.046875 636.421875 101.144531 640.703125 104.332031 644.917969 C 107.519531 649.136719 110.792969 653.28125 114.160156 657.355469 C 117.523438 661.429688 120.972656 665.429688 124.511719 669.355469 C 128.046875 673.285156 131.664062 677.132812 135.367188 680.90625 C 139.066406 684.675781 142.847656 688.367188 146.707031 691.976562 C 150.566406 695.585938 154.5 699.113281 158.511719 702.554688 C 162.523438 705.992188 166.605469 709.347656 170.757812 712.613281 C 174.914062 715.878906 179.132812 719.054688 183.425781 722.140625 C 187.714844 725.226562 192.070312 728.21875 196.488281 731.117188 C 200.90625 734.015625 205.382812 736.816406 209.921875 739.523438 C 214.460938 742.230469 219.054688 744.835938 223.707031 747.347656 C 228.355469 749.855469 233.058594 752.265625 237.8125 754.574219 C 242.5625 756.882812 247.363281 759.085938 252.214844 761.1875 C 257.0625 763.292969 261.953125 765.289062 266.886719 767.179688 C 271.820312 769.074219 276.789062 770.859375 281.800781 772.539062 C 300.261719 775.492188 306.164062 764.050781 306.164062 754.101562 L 306.164062 691.730469 C 203.980469 713.929688 182.226562 642.316406 182.226562 642.316406 C 165.304688 599.507812 141.277344 588.070312 141.277344 588.070312 C 107.695312 565.1875 143.890625 565.945312 143.890625 565.945312 C 180.761719 568.558594 200.324219 603.949219 200.324219 603.949219 C 232.417969 660.023438 286.632812 643.414062 307.652344 634.558594 C 310.96875 610.582031 320.710938 594.335938 330.894531 585.117188 C 248.871094 575.898438 163.03125 544.164062 163.03125 403.625 C 163.03125 362.671875 177.054688 329.839844 201.027344 303.644531 C 197.347656 294.425781 184.417969 256.058594 204.710938 206.25 C 204.710938 206.25 235.707031 196.273438 306.164062 243.886719 C 321.199219 239.839844 336.433594 236.792969 351.871094 234.75 C 367.304688 232.710938 382.808594 231.6875 398.375 231.6875 C 413.945312 231.6875 429.449219 232.710938 444.882812 234.75 C 460.316406 236.792969 475.554688 239.839844 490.585938 243.886719 C 561.097656 196.273438 592.042969 206.25 592.042969 206.25 C 612.308594 256.058594 599.40625 294.425781 595.722656 303.644531 C 619.699219 329.761719 633.722656 362.671875 633.722656 403.625 C 633.722656 544.53125 547.386719 575.53125 465.152344 584.75 C 478.417969 596.191406 490.585938 618.703125 490.585938 652.996094 L 490.585938 754.101562 C 490.585938 764.050781 496.488281 775.855469 515.316406 772.539062 C 520.664062 770.746094 525.96875 768.835938 531.226562 766.800781 C 536.488281 764.765625 541.699219 762.609375 546.859375 760.335938 C 552.019531 758.0625 557.125 755.671875 562.175781 753.164062 C 567.230469 750.65625 572.21875 748.03125 577.152344 745.296875 C 582.082031 742.558594 586.949219 739.710938 591.75 736.753906 C 596.550781 733.792969 601.28125 730.726562 605.941406 727.546875 C 610.601562 724.371094 615.1875 721.089844 619.695312 717.703125 C 624.207031 714.316406 628.636719 710.828125 632.984375 707.238281 C 637.335938 703.652344 641.601562 699.964844 645.78125 696.179688 C 649.964844 692.394531 654.054688 688.515625 658.058594 684.542969 C 662.0625 680.570312 665.972656 676.507812 669.789062 672.355469 C 673.609375 668.203125 677.328125 663.96875 680.949219 659.644531 C 684.574219 655.324219 688.097656 650.921875 691.519531 646.4375 C 694.941406 641.953125 698.257812 637.394531 701.46875 632.757812 C 704.683594 628.121094 707.785156 623.414062 710.785156 618.636719 C 713.78125 613.859375 716.667969 609.015625 719.441406 604.105469 C 722.214844 599.195312 724.878906 594.222656 727.425781 589.191406 C 729.972656 584.160156 732.402344 579.074219 734.71875 573.929688 C 737.03125 568.785156 739.226562 563.59375 741.304688 558.347656 C 743.378906 553.105469 745.335938 547.816406 747.167969 542.480469 C 749.003906 537.148438 750.714844 531.773438 752.300781 526.363281 C 753.886719 520.949219 755.351562 515.503906 756.691406 510.027344 C 758.027344 504.546875 759.242188 499.039062 760.328125 493.503906 C 761.414062 487.96875 762.371094 482.414062 763.203125 476.835938 C 764.035156 471.257812 764.738281 465.660156 765.3125 460.050781 C 765.886719 454.441406 766.332031 448.820312 766.652344 443.1875 C 766.96875 437.554688 767.15625 431.921875 767.214844 426.28125 C 767.277344 420.640625 767.207031 415.003906 767.007812 409.367188 C 766.808594 403.730469 766.480469 398.101562 766.023438 392.480469 C 765.566406 386.855469 764.980469 381.25 764.269531 375.652344 C 763.554688 370.058594 762.710938 364.484375 761.742188 358.925781 C 760.773438 353.371094 759.679688 347.839844 758.457031 342.332031 C 757.234375 336.828125 755.882812 331.351562 754.410156 325.90625 C 752.9375 320.464844 751.339844 315.054688 749.617188 309.683594 C 747.898438 304.3125 746.054688 298.984375 744.089844 293.699219 C 742.125 288.410156 740.039062 283.171875 737.832031 277.980469 C 735.628906 272.789062 733.304688 267.652344 730.863281 262.566406 C 728.421875 257.484375 725.867188 252.457031 723.195312 247.488281 C 720.523438 242.523438 717.742188 237.617188 714.847656 232.777344 C 711.949219 227.9375 708.945312 223.167969 705.832031 218.464844 C 702.714844 213.761719 699.496094 209.136719 696.167969 204.582031 C 692.84375 200.027344 689.414062 195.550781 685.882812 191.152344 C 682.351562 186.753906 678.722656 182.441406 674.992188 178.207031 C 671.261719 173.976562 667.4375 169.835938 663.519531 165.777344 C 659.601562 161.722656 655.59375 157.757812 651.492188 153.886719 C 647.390625 150.015625 643.203125 146.238281 638.929688 142.558594 C 634.65625 138.878906 630.300781 135.296875 625.863281 131.816406 C 621.425781 128.335938 616.910156 124.957031 612.320312 121.683594 C 607.726562 118.410156 603.0625 115.242188 598.324219 112.183594 C 593.585938 109.125 588.78125 106.171875 583.910156 103.335938 C 579.035156 100.496094 574.101562 97.765625 569.105469 95.152344 C 564.105469 92.539062 559.050781 90.042969 553.941406 87.660156 C 548.828125 85.277344 543.664062 83.015625 538.449219 80.867188 C 533.234375 78.722656 527.972656 76.699219 522.664062 74.792969 C 517.355469 72.890625 512.003906 71.109375 506.617188 69.449219 C 501.226562 67.789062 495.800781 66.253906 490.339844 64.84375 C 484.878906 63.433594 479.390625 62.148438 473.871094 60.992188 C 468.351562 59.832031 462.808594 58.800781 457.242188 57.894531 C 451.675781 56.992188 446.089844 56.214844 440.488281 55.5625 C 434.886719 54.914062 429.273438 54.394531 423.648438 54.003906 C 418.023438 53.613281 412.390625 53.347656 406.753906 53.214844 C 401.113281 53.082031 395.476562 53.078125 389.839844 53.203125 C 384.199219 53.328125 378.566406 53.582031 372.941406 53.964844 C 367.316406 54.347656 361.699219 54.855469 356.097656 55.496094 Z M 356.097656 55.496094 " fill-opacity="1" fill-rule="nonzero"/></svg>