<svg xmlns="http://www.w3.org/2000/svg" xmlns:xlink="http://www.w3.org/1999/xlink" width="80" zoomAndPan="magnify" viewBox="0 0 810 809.999993" height="80" preserveAspectRatio="xMidYMid meet" version="1.0"><defs><clipPath id="a609d378a4"><path d="M 25 24.824219 L 785 24.824219 L 785 785.324219 L 25 785.324219 Z M 25 24.824219 " clip-rule="nonzero"/></clipPath></defs><g clip-path="url(#a609d378a4)"><path fill="#FAFAFA" d="M 721.648438 24.824219 L 88.722656 24.824219 C 53.730469 24.824219 25.582031 53.351562 25.582031 87.964844 L 25.582031 722.03125 C 25.582031 757.023438 54.109375 785.171875 88.722656 785.171875 L 721.269531 785.171875 C 756.261719 785.171875 784.410156 756.644531 784.410156 722.03125 L 784.410156 87.964844 C 784.789062 53.351562 756.644531 24.824219 721.648438 24.824219 Z M 250.378906 652.042969 L 138.171875 652.042969 L 138.171875 315.039062 L 250.378906 315.039062 Z M 194.085938 274.339844 C 158.710938 274.339844 130.183594 245.8125 130.183594 210.441406 C 130.183594 175.066406 158.710938 146.539062 194.085938 146.539062 C 229.457031 146.539062 257.984375 175.066406 257.984375 210.441406 C 257.984375 245.8125 229.457031 274.339844 194.085938 274.339844 Z M 672.582031 652.042969 L 559.996094 652.042969 L 557.332031 451.972656 C 557.332031 451.972656 559.996094 398.71875 501.800781 399.101562 C 443.601562 399.480469 435.617188 451.972656 435.617188 451.972656 L 435.617188 652.042969 L 322.265625 652.042969 L 322.265625 315.039062 L 431.050781 315.039062 L 431.050781 361.445312 C 431.050781 361.445312 435.617188 346.230469 460.71875 328.351562 C 485.824219 310.476562 527.285156 306.671875 545.160156 307.433594 C 563.039062 308.195312 587.382812 305.152344 628.078125 333.296875 C 671.820312 363.347656 672.960938 442.082031 672.960938 442.082031 Z M 672.582031 652.042969 " fill-opacity="1" fill-rule="nonzero"/></g></svg>