<svg xmlns="http://www.w3.org/2000/svg" xmlns:xlink="http://www.w3.org/1999/xlink" width="80" zoomAndPan="magnify" viewBox="0 0 810 809.999993" height="80" preserveAspectRatio="xMidYMid meet" version="1.0"><defs><clipPath id="c85d557459"><path d="M 25 23.351562 L 787.398438 23.351562 L 787.398438 786 L 25 786 Z M 25 23.351562 " clip-rule="nonzero"/></clipPath></defs><g clip-path="url(#c85d557459)"><path fill="#FAFAFA" d="M 406.320312 23.351562 C 195.792969 23.351562 25.449219 193.820312 25.449219 404.429688 C 25.449219 466.710938 40.75 528.230469 69.773438 582.941406 L 26.117188 757.652344 C 22.566406 771.855469 33.347656 785.507812 47.851562 785.507812 C 53.070312 785.507812 44.328125 786.835938 227.90625 741.160156 C 282.585938 770.199219 344.074219 785.507812 406.320312 785.507812 C 616.847656 785.507812 787.195312 615.042969 787.195312 404.429688 C 787.195312 193.789062 616.820312 23.351562 406.320312 23.351562 Z M 406.320312 740.675781 C 348.722656 740.675781 291.878906 725.832031 241.9375 697.746094 C 238.558594 695.847656 234.773438 694.871094 230.960938 694.871094 C 225.835938 694.871094 232.71875 693.984375 78.644531 732.28125 L 115.363281 585.320312 C 116.753906 579.765625 115.960938 573.890625 113.160156 568.898438 C 85.089844 518.933594 70.253906 462.058594 70.253906 404.429688 C 70.253906 219.023438 221.011719 68.183594 406.320312 68.183594 C 591.625 68.183594 742.382812 219.023438 742.382812 404.429688 C 742.382812 589.832031 591.628906 740.675781 406.320312 740.675781 Z M 406.320312 740.675781 " fill-opacity="1" fill-rule="nonzero"/></g><path fill="#FAFAFA" d="M 579.269531 449.75 C 558.324219 428.796875 525.230469 425.515625 500.589844 441.957031 L 465.238281 465.535156 C 415.050781 437.6875 373.078125 395.695312 345.246094 345.480469 L 368.8125 310.109375 C 385.246094 285.453125 381.96875 252.34375 361.023438 231.390625 L 326.46875 196.816406 C 302.097656 172.429688 262.652344 172.433594 238.285156 196.816406 L 208.171875 226.941406 C 177.902344 257.230469 166.09375 301.71875 177.359375 343.042969 C 215.925781 484.523438 326.484375 594.984375 467.675781 633.511719 C 509.195312 644.84375 553.613281 632.796875 583.710938 602.679688 L 613.820312 572.554688 C 638.191406 548.171875 638.191406 508.707031 613.820312 484.324219 Z M 582.140625 540.855469 L 552.027344 570.980469 C 533.097656 589.921875 505.300781 597.308594 479.464844 590.257812 C 354.003906 556.023438 254.808594 456.777344 220.589844 331.246094 C 213.546875 305.40625 220.929688 277.585938 239.859375 258.644531 L 269.972656 228.515625 C 276.828125 221.65625 287.929688 221.65625 294.785156 228.515625 L 329.339844 263.09375 C 335.234375 268.988281 336.15625 278.304688 331.535156 285.242188 L 300.578125 331.699219 C 296.117188 338.394531 295.585938 346.964844 299.179688 354.160156 C 333.007812 421.855469 388.902344 477.78125 456.5625 511.628906 C 463.753906 515.222656 472.324219 514.691406 479.011719 510.230469 L 525.441406 479.257812 C 532.375 474.632812 541.6875 475.550781 547.582031 481.449219 L 582.140625 516.023438 C 588.996094 522.886719 588.996094 533.996094 582.140625 540.855469 Z M 582.140625 540.855469 " fill-opacity="1" fill-rule="nonzero"/><path fill="#FAFAFA" d="M 406.320312 135.433594 C 393.949219 135.433594 383.917969 145.46875 383.917969 157.851562 C 383.917969 170.230469 393.949219 180.265625 406.320312 180.265625 C 529.859375 180.265625 630.363281 280.824219 630.363281 404.429688 C 630.363281 416.808594 640.394531 426.847656 652.769531 426.847656 C 665.140625 426.847656 675.171875 416.808594 675.171875 404.429688 C 675.171875 256.105469 554.566406 135.433594 406.320312 135.433594 Z M 406.320312 135.433594 " fill-opacity="1" fill-rule="nonzero"/></svg>